<mxfile host="65bd71144e">
    <diagram id="P2TlbO7HlZa_hbQ6rfjH" name="Page-1">
        <mxGraphModel dx="150" dy="128" grid="1" gridSize="10" guides="1" tooltips="1" connect="1" arrows="1" fold="1" page="1" pageScale="1" pageWidth="850" pageHeight="1100" math="0" shadow="0">
            <root>
                <mxCell id="0"/>
                <mxCell id="1" parent="0"/>
                <mxCell id="_9ffq8YV0B5gNfxVQqzy-4" style="rounded=0;orthogonalLoop=1;jettySize=auto;html=1;exitX=1;exitY=0.25;exitDx=0;exitDy=0;entryX=0;entryY=0.417;entryDx=0;entryDy=0;entryPerimeter=0;" parent="1" source="_9ffq8YV0B5gNfxVQqzy-1" target="_9ffq8YV0B5gNfxVQqzy-2" edge="1">
                    <mxGeometry relative="1" as="geometry"/>
                </mxCell>
                <mxCell id="_9ffq8YV0B5gNfxVQqzy-1" value="client" style="rounded=0;whiteSpace=wrap;html=1;" parent="1" vertex="1">
                    <mxGeometry x="130" y="240" width="70" height="60" as="geometry"/>
                </mxCell>
                <mxCell id="_9ffq8YV0B5gNfxVQqzy-2" value="server" style="rounded=0;whiteSpace=wrap;html=1;" parent="1" vertex="1">
                    <mxGeometry x="310" y="190" width="120" height="120" as="geometry"/>
                </mxCell>
                <mxCell id="_9ffq8YV0B5gNfxVQqzy-3" value="jwt" style="rounded=0;whiteSpace=wrap;html=1;" parent="1" vertex="1">
                    <mxGeometry x="560" y="230" width="100" height="60" as="geometry"/>
                </mxCell>
                <mxCell id="_9ffq8YV0B5gNfxVQqzy-5" value="username, pass" style="text;html=1;align=center;verticalAlign=middle;resizable=0;points=[];autosize=1;strokeColor=none;rotation=-10;" parent="1" vertex="1">
                    <mxGeometry x="200" y="230" width="100" height="20" as="geometry"/>
                </mxCell>
                <mxCell id="_9ffq8YV0B5gNfxVQqzy-6" value="" style="endArrow=classic;html=1;" parent="1" edge="1">
                    <mxGeometry width="50" height="50" relative="1" as="geometry">
                        <mxPoint x="440" y="240" as="sourcePoint"/>
                        <mxPoint x="550" y="240" as="targetPoint"/>
                    </mxGeometry>
                </mxCell>
                <mxCell id="_9ffq8YV0B5gNfxVQqzy-7" value="" style="endArrow=classic;html=1;" parent="1" edge="1">
                    <mxGeometry width="50" height="50" relative="1" as="geometry">
                        <mxPoint x="550" y="270" as="sourcePoint"/>
                        <mxPoint x="440" y="270" as="targetPoint"/>
                    </mxGeometry>
                </mxCell>
                <mxCell id="_9ffq8YV0B5gNfxVQqzy-8" value="token" style="text;html=1;strokeColor=none;fillColor=none;align=center;verticalAlign=middle;whiteSpace=wrap;rounded=0;" parent="1" vertex="1">
                    <mxGeometry x="480" y="250" width="40" height="20" as="geometry"/>
                </mxCell>
                <mxCell id="_9ffq8YV0B5gNfxVQqzy-11" value="" style="endArrow=classic;html=1;exitX=-0.011;exitY=0.686;exitDx=0;exitDy=0;entryX=1;entryY=0.75;entryDx=0;entryDy=0;exitPerimeter=0;" parent="1" source="_9ffq8YV0B5gNfxVQqzy-2" target="_9ffq8YV0B5gNfxVQqzy-1" edge="1">
                    <mxGeometry width="50" height="50" relative="1" as="geometry">
                        <mxPoint x="370" y="180" as="sourcePoint"/>
                        <mxPoint x="420" y="130" as="targetPoint"/>
                    </mxGeometry>
                </mxCell>
                <mxCell id="_9ffq8YV0B5gNfxVQqzy-12" value="token" style="text;html=1;strokeColor=none;fillColor=none;align=center;verticalAlign=middle;whiteSpace=wrap;rounded=0;rotation=-5;" parent="1" vertex="1">
                    <mxGeometry x="240" y="260" width="40" height="20" as="geometry"/>
                </mxCell>
                <mxCell id="_9ffq8YV0B5gNfxVQqzy-13" value="&lt;b&gt;&lt;font style=&quot;font-size: 15px&quot;&gt;1st authentication:&lt;/font&gt;&lt;/b&gt;" style="text;html=1;strokeColor=none;fillColor=none;align=center;verticalAlign=middle;whiteSpace=wrap;rounded=0;" parent="1" vertex="1">
                    <mxGeometry x="300" y="130" width="150" height="20" as="geometry"/>
                </mxCell>
                <mxCell id="_9ffq8YV0B5gNfxVQqzy-14" value="&lt;b&gt;&lt;font style=&quot;font-size: 15px&quot;&gt;2nd authentication and beyond:&lt;/font&gt;&lt;/b&gt;" style="text;html=1;strokeColor=none;fillColor=none;align=center;verticalAlign=middle;whiteSpace=wrap;rounded=0;" parent="1" vertex="1">
                    <mxGeometry x="240" y="410" width="310" height="20" as="geometry"/>
                </mxCell>
                <mxCell id="_9ffq8YV0B5gNfxVQqzy-18" style="edgeStyle=none;rounded=0;orthogonalLoop=1;jettySize=auto;html=1;exitX=1;exitY=0.5;exitDx=0;exitDy=0;entryX=0;entryY=0.5;entryDx=0;entryDy=0;" parent="1" source="_9ffq8YV0B5gNfxVQqzy-15" target="_9ffq8YV0B5gNfxVQqzy-16" edge="1">
                    <mxGeometry relative="1" as="geometry"/>
                </mxCell>
                <mxCell id="_9ffq8YV0B5gNfxVQqzy-15" value="client" style="rounded=0;whiteSpace=wrap;html=1;" parent="1" vertex="1">
                    <mxGeometry x="130" y="470" width="70" height="60" as="geometry"/>
                </mxCell>
                <mxCell id="_9ffq8YV0B5gNfxVQqzy-20" style="edgeStyle=none;rounded=0;orthogonalLoop=1;jettySize=auto;html=1;exitX=1;exitY=0.5;exitDx=0;exitDy=0;" parent="1" source="_9ffq8YV0B5gNfxVQqzy-16" target="_9ffq8YV0B5gNfxVQqzy-17" edge="1">
                    <mxGeometry relative="1" as="geometry"/>
                </mxCell>
                <mxCell id="_9ffq8YV0B5gNfxVQqzy-16" value="server" style="rounded=0;whiteSpace=wrap;html=1;" parent="1" vertex="1">
                    <mxGeometry x="310" y="440" width="120" height="120" as="geometry"/>
                </mxCell>
                <mxCell id="_9ffq8YV0B5gNfxVQqzy-17" value="jwt" style="rounded=0;whiteSpace=wrap;html=1;" parent="1" vertex="1">
                    <mxGeometry x="560" y="470" width="100" height="60" as="geometry"/>
                </mxCell>
                <mxCell id="_9ffq8YV0B5gNfxVQqzy-19" value="request+token" style="text;html=1;strokeColor=none;fillColor=none;align=center;verticalAlign=middle;whiteSpace=wrap;rounded=0;" parent="1" vertex="1">
                    <mxGeometry x="200" y="480" width="100" height="20" as="geometry"/>
                </mxCell>
                <mxCell id="_9ffq8YV0B5gNfxVQqzy-21" value="token to validate" style="text;html=1;strokeColor=none;fillColor=none;align=center;verticalAlign=middle;whiteSpace=wrap;rounded=0;" parent="1" vertex="1">
                    <mxGeometry x="440" y="480" width="110" height="20" as="geometry"/>
                </mxCell>
            </root>
        </mxGraphModel>
    </diagram>
</mxfile>